<?xml version="1.0" encoding="utf-8"?>
<!-- Generator: Adobe Illustrator 22.0.0, SVG Export Plug-In . SVG Version: 6.00 Build 0)  -->
<svg version="1.1" id="Layer_1" xmlns="http://www.w3.org/2000/svg" xmlns:xlink="http://www.w3.org/1999/xlink" x="0px" y="0px"
	 viewBox="0 0 539.9 71.3" style="enable-background:new 0 0 539.9 71.3;" xml:space="preserve">
<style type="text/css">
	.st0{clip-path:url(#SVGID_2_);}
	.st1{clip-path:url(#SVGID_4_);fill:#FFFFFF;}
</style>
<g>
	<g>
		<defs>
			<rect id="SVGID_1_" x="-4.1" y="4.3" width="546.4" height="74"/>
		</defs>
		<clipPath id="SVGID_2_">
			<use xlink:href="#SVGID_1_"  style="overflow:visible;"/>
		</clipPath>
		<g class="st0">
			<g>
				<defs>
					<path id="SVGID_3_" d="M-2.7,8.5c-6.6,1-11.3,5-11.3,9.5v200.4c0,8.8,15.4,13.6,25.5,7.8L117,167c6.5-3.7,14.7-5.7,23.2-5.7
						h376.6c21.4,0,38.8-11.6,38.8-25.8V74.7c0-6.2-8.6-10.6-17.8-9.4c-89,11.5-178-8.6-267-28.9c-70.9-16.1-142-32.1-213-32.1
						C37.7,4.3,17.5,5.5-2.7,8.5"/>
				</defs>
				<clipPath id="SVGID_4_">
					<use xlink:href="#SVGID_3_"  style="overflow:visible;"/>
				</clipPath>
				<rect x="-14" y="4.3" class="st1" width="569.6" height="227.7"/>
			</g>
		</g>
	</g>
</g>
</svg>
