<?xml version="1.0" encoding="utf-8"?>
<!-- Generator: Adobe Illustrator 22.0.0, SVG Export Plug-In . SVG Version: 6.00 Build 0)  -->
<svg version="1.1" id="Layer_1" xmlns="http://www.w3.org/2000/svg" xmlns:xlink="http://www.w3.org/1999/xlink" x="0px" y="0px"
	 viewBox="0 0 368.6 74" style="enable-background:new 0 0 368.6 74;" xml:space="preserve">
<style type="text/css">
	.st0{clip-path:url(#SVGID_2_);fill:#FFFFFF;}
	.st1{clip-path:url(#SVGID_2_);}
	.st2{clip-path:url(#SVGID_4_);fill:#FFFFFF;}
	.st3{clip-path:url(#SVGID_6_);fill:url(#SVGID_7_);}
</style>
<g id="Logo_White_1_">
	<g>
		<defs>
			<rect id="SVGID_1_" x="6.4" y="8.7" width="351.1" height="58.2"/>
		</defs>
		<clipPath id="SVGID_2_">
			<use xlink:href="#SVGID_1_"  style="overflow:visible;"/>
		</clipPath>
		<polygon class="st0" points="116.7,17 96.9,17 96.9,30.1 116.1,30.1 116.1,37.5 96.9,37.5 96.9,56.6 89.2,56.6 89.2,9.6 
			116.7,9.6 		"/>
		<rect x="120.7" y="9.6" class="st0" width="7.3" height="47"/>
		<g class="st1">
			<defs>
				<rect id="SVGID_3_" x="6.6" y="8.7" width="350.9" height="58"/>
			</defs>
			<clipPath id="SVGID_4_">
				<use xlink:href="#SVGID_3_"  style="overflow:visible;"/>
			</clipPath>
			<path class="st2" d="M149.5,57.5c-4.9,0-9.1-1.7-12.6-5.1c-3.5-3.4-5.2-7.6-5.2-12.6c0-5,1.7-9.2,5.2-12.6
				c3.4-3.4,7.6-5.1,12.6-5.1c5,0,9.2,1.7,12.6,5.1c3.4,3.4,5.1,7.6,5.1,12.6c0,5-1.7,9.2-5.1,12.6
				C158.7,55.8,154.5,57.5,149.5,57.5 M142,47.4c2,2,4.5,3,7.5,3c3,0,5.4-1,7.5-3c2-2,3-4.5,3-7.6c0-3-1-5.6-3-7.6c-2-2-4.5-3-7.5-3
				c-3,0-5.4,1-7.5,3c-2,2-3,4.5-3,7.6C139,42.9,140,45.4,142,47.4"/>
			<polygon class="st2" points="208.4,23 216.1,23 205.5,56.6 198.4,56.6 191.4,34 184.3,56.6 177.2,56.6 166.7,23 174.3,23 
				180.8,46.2 187.9,23 194.8,23 201.8,46.2 			"/>
			<path class="st2" d="M241.5,57.5c-7.1,0-12.9-2.3-17.6-7c-4.7-4.7-7-10.5-7-17.4c0-6.9,2.3-12.7,7-17.4c4.7-4.7,10.5-7,17.6-7
				c4.3,0,8.2,1,11.8,3c3.6,2,6.4,4.8,8.4,8.2l-6.7,3.9c-1.3-2.3-3.1-4.2-5.5-5.5c-2.4-1.4-5.1-2.1-8-2.1c-5,0-9.1,1.6-12.2,4.8
				c-3.1,3.2-4.7,7.2-4.7,12.1c0,4.9,1.6,8.9,4.7,12.1c3.1,3.2,7.2,4.8,12.2,4.8c3,0,5.6-0.7,8.1-2c2.4-1.4,4.2-3.2,5.4-5.5l6.7,3.8
				c-2,3.5-4.8,6.2-8.4,8.2C249.8,56.5,245.8,57.5,241.5,57.5"/>
			<path class="st2" d="M281.3,22.1c3.9,0,7,1.2,9.3,3.7c2.4,2.5,3.6,5.8,3.6,10.1v20.6h-7.3V36.7c0-2.5-0.7-4.4-2-5.8
				c-1.3-1.3-3.2-2-5.5-2c-2.6,0-4.6,0.8-6.2,2.4c-1.6,1.6-2.4,4-2.4,7.3v18h-7.3v-47h7.3v17.7C273.1,23.9,276.5,22.1,281.3,22.1"/>
			<path class="st2" d="M325.8,23h7.3v33.6h-7.3v-4.8c-2.7,3.8-6.7,5.7-11.8,5.7c-4.6,0-8.6-1.7-11.8-5.1c-3.3-3.4-4.9-7.6-4.9-12.5
				c0-5,1.6-9.2,4.9-12.6c3.3-3.4,7.2-5.1,11.8-5.1c5.1,0,9,1.9,11.8,5.6V23z M307.6,47.5c2,2,4.5,3.1,7.6,3.1c3,0,5.6-1,7.6-3.1
				s3-4.6,3-7.7s-1-5.7-3-7.7c-2-2-4.5-3.1-7.6-3.1c-3,0-5.6,1-7.6,3.1c-2,2-3,4.6-3,7.7S305.6,45.5,307.6,47.5"/>
			<path class="st2" d="M357.5,30h-8.3v16.1c0,1.4,0.3,2.4,0.9,3c0.6,0.6,1.6,0.9,2.8,1c1.2,0.1,2.8,0.1,4.6,0v6.5
				c-5.6,0.7-9.5,0.2-12-1.4c-2.4-1.6-3.6-4.6-3.6-9V30h-6.2v-7h6.2v-7.3l7.3-2.1V23h8.3V30z"/>
		</g>
		<g class="st1">
			<defs>
				<path id="SVGID_5_" d="M7.5,33.5c-0.7,0.1-1.1,0.8-1.1,1.4v30.3c0,0.9,0.7,1.6,1.5,1.6H8c0.3,0,0.7-0.1,1-0.4l10.6-9
					c0.7-0.6,1.5-0.9,2.3-0.9h37.9c2.2,0,3.9-1.8,3.9-3.9v-9.2c0-0.9-0.9-1.6-1.8-1.4c-9,1.7-17.9-1.3-26.9-4.4
					c-7.2-2.4-14.3-4.9-21.5-4.9C11.6,32.9,9.6,33.1,7.5,33.5 M9.9,9.5C8,9.5,6.4,11.1,6.4,13v10c0,0.9,0.9,1.6,1.8,1.4
					c9-1.7,17.9,1.3,26.9,4.4c9.2,3.1,18.4,6.3,27.6,4.2c0.7-0.1,1.1-0.8,1.1-1.4V12.2c0-1.5-1.2-2.7-2.7-2.7H9.9z"/>
			</defs>
			<clipPath id="SVGID_6_">
				<use xlink:href="#SVGID_5_"  style="overflow:visible;"/>
			</clipPath>
			
				<linearGradient id="SVGID_7_" gradientUnits="userSpaceOnUse" x1="-3.585107e-02" y1="74.0261" x2="0.8904" y2="74.0261" gradientTransform="matrix(-28.1404 77.3151 77.3151 28.1404 -5676.2788 -2077.8308)">
				<stop  offset="0" style="stop-color:#00F0C8"/>
				<stop  offset="0.4294" style="stop-color:#00F0C8"/>
				<stop  offset="0.8432" style="stop-color:#00C8A0"/>
				<stop  offset="1" style="stop-color:#00C8A0"/>
			</linearGradient>
			<polygon class="st3" points="82.2,16.2 57.1,85.3 -12,60.2 13.1,-8.9 			"/>
		</g>
	</g>
</g>
</svg>
