<?xml version="1.0" encoding="utf-8"?>
<!-- Generator: Adobe Illustrator 22.0.0, SVG Export Plug-In . SVG Version: 6.00 Build 0)  -->
<svg version="1.1" id="Layer_1" xmlns="http://www.w3.org/2000/svg" xmlns:xlink="http://www.w3.org/1999/xlink" x="0px" y="0px"
	 viewBox="0 0 368.6 74" style="enable-background:new 0 0 368.6 74;" xml:space="preserve">
<style type="text/css">
	.st0{fill:#240046;}
	.st1{clip-path:url(#SVGID_2_);fill:#240046;}
</style>
<g>
	<polygon class="st0" points="116.6,17 96.8,17 96.8,30.1 115.9,30.1 115.9,37.5 96.8,37.5 96.8,56.6 89.1,56.6 89.1,9.6 116.6,9.6 
			"/>
	<rect x="120.6" y="9.6" class="st0" width="7.3" height="47"/>
	<path class="st0" d="M149.4,57.5c-4.9,0-9.1-1.7-12.6-5.1c-3.5-3.4-5.2-7.6-5.2-12.6s1.7-9.2,5.2-12.6c3.4-3.4,7.6-5.1,12.6-5.1
		c5,0,9.2,1.7,12.6,5.1c3.4,3.4,5.1,7.6,5.1,12.6s-1.7,9.2-5.1,12.6C158.5,55.8,154.3,57.5,149.4,57.5 M141.9,47.4c2,2,4.5,3,7.5,3
		c3,0,5.4-1,7.5-3c2-2,3-4.5,3-7.6c0-3-1-5.6-3-7.6c-2-2-4.5-3-7.5-3c-3,0-5.4,1-7.5,3c-2,2-3,4.5-3,7.6
		C138.9,42.9,139.9,45.4,141.9,47.4"/>
	<polygon class="st0" points="208.3,23 215.9,23 205.4,56.6 198.3,56.6 191.3,34 184.2,56.6 177.1,56.6 166.5,23 174.2,23 
		180.7,46.2 187.8,23 194.7,23 201.7,46.2 	"/>
	<path class="st0" d="M241.4,57.5c-7.1,0-12.9-2.3-17.6-7c-4.7-4.7-7-10.5-7-17.4c0-6.9,2.3-12.7,7-17.4c4.7-4.7,10.5-7,17.6-7
		c4.3,0,8.2,1,11.8,3c3.6,2,6.4,4.7,8.4,8.2l-6.7,3.9c-1.3-2.3-3.1-4.2-5.5-5.5c-2.4-1.4-5.1-2.1-8-2.1c-5,0-9.1,1.6-12.2,4.8
		c-3.1,3.2-4.7,7.2-4.7,12.1c0,4.9,1.6,8.9,4.7,12.1c3.1,3.2,7.2,4.8,12.2,4.8c3,0,5.6-0.7,8.1-2c2.4-1.4,4.2-3.2,5.4-5.5l6.7,3.8
		c-2,3.5-4.8,6.2-8.4,8.2C249.7,56.5,245.7,57.5,241.4,57.5"/>
	<path class="st0" d="M281.2,22.1c3.9,0,7,1.2,9.3,3.7c2.4,2.5,3.6,5.8,3.6,10.1v20.6h-7.3V36.7c0-2.5-0.7-4.4-2-5.8
		c-1.3-1.3-3.2-2-5.5-2c-2.6,0-4.6,0.8-6.2,2.4c-1.6,1.6-2.4,4-2.4,7.3v18h-7.3v-47h7.3v17.7C272.9,23.9,276.4,22.1,281.2,22.1"/>
	<path class="st0" d="M325.7,23h7.3v33.6h-7.3v-4.8c-2.7,3.8-6.7,5.7-11.8,5.7c-4.6,0-8.6-1.7-11.8-5.1c-3.3-3.4-4.9-7.6-4.9-12.5
		c0-5,1.6-9.2,4.9-12.6c3.3-3.4,7.2-5.1,11.8-5.1c5.1,0,9,1.9,11.8,5.6V23z M307.5,47.5c2,2,4.5,3.1,7.6,3.1s5.6-1,7.6-3.1
		c2-2,3-4.6,3-7.7c0-3.1-1-5.7-3-7.7c-2-2-4.5-3.1-7.6-3.1s-5.6,1-7.6,3.1c-2,2-3,4.6-3,7.7C304.4,42.9,305.5,45.5,307.5,47.5"/>
	<path class="st0" d="M357.4,30H349v16.1c0,1.4,0.3,2.4,0.9,3c0.6,0.6,1.6,0.9,2.8,1c1.2,0.1,2.8,0.1,4.6,0v6.5
		c-5.6,0.7-9.5,0.2-12-1.4c-2.4-1.6-3.6-4.6-3.6-9V30h-6.2v-7h6.2v-7.3l7.3-2.2V23h8.3V30z"/>
	<g>
		<g>
			<defs>
				<path id="SVGID_1_" d="M63.7,43.5v9.2c0,2.2-1.8,3.9-3.9,3.9H21.8c-0.9,0-1.7,0.3-2.3,0.9l-10.6,9c-0.3,0.3-0.6,0.4-1,0.4h0
					c-0.8,0-1.5-0.6-1.5-1.6V35c0-0.7,0.5-1.3,1.1-1.4c2-0.4,4.1-0.6,6.1-0.6c7.2,0,14.3,2.4,21.5,4.9c9,3.1,17.9,6.1,26.9,4.4
					C62.8,41.9,63.7,42.6,63.7,43.5z M8.1,24.4c9-1.7,17.9,1.3,26.9,4.4c9.2,3.1,18.4,6.3,27.6,4.2c0.7-0.1,1.1-0.8,1.1-1.4V12.2
					c0-1.5-1.2-2.7-2.7-2.7H9.8c-1.9,0-3.5,1.6-3.5,3.5v10C6.3,23.9,7.1,24.6,8.1,24.4z"/>
			</defs>
			<use xlink:href="#SVGID_1_"  style="overflow:visible;fill:#240046;"/>
			<clipPath id="SVGID_2_">
				<use xlink:href="#SVGID_1_"  style="overflow:visible;"/>
			</clipPath>
			<rect x="5.2" y="8.6" class="st1" width="59.5" height="59.5"/>
		</g>
	</g>
</g>
</svg>
