<?xml version="1.0" encoding="utf-8"?>
<!-- Generator: Adobe Illustrator 22.0.0, SVG Export Plug-In . SVG Version: 6.00 Build 0)  -->
<svg version="1.1" id="Layer_1" xmlns="http://www.w3.org/2000/svg" xmlns:xlink="http://www.w3.org/1999/xlink" x="0px" y="0px"
	 viewBox="0 0 368.6 74" style="enable-background:new 0 0 368.6 74;" xml:space="preserve">
<style type="text/css">
	.st0{clip-path:url(#SVGID_2_);fill:#240046;}
	.st1{clip-path:url(#SVGID_2_);}
	.st2{clip-path:url(#SVGID_4_);fill:#240046;}
	.st3{clip-path:url(#SVGID_6_);fill:url(#SVGID_7_);}
</style>
<g id="Logo_1_">
	<g>
		<defs>
			<rect id="SVGID_1_" x="6.4" y="8" width="354.2" height="58.7"/>
		</defs>
		<clipPath id="SVGID_2_">
			<use xlink:href="#SVGID_1_"  style="overflow:visible;"/>
		</clipPath>
		<polygon class="st0" points="117.7,16.3 97.7,16.3 97.7,29.6 117,29.6 117,37.1 97.7,37.1 97.7,56.4 89.9,56.4 89.9,8.9 
			117.7,8.9 		"/>
		<rect x="121.8" y="8.9" class="st0" width="7.3" height="47.5"/>
		<g class="st1">
			<defs>
				<rect id="SVGID_3_" x="6.4" y="8" width="354.2" height="58.7"/>
			</defs>
			<clipPath id="SVGID_4_">
				<use xlink:href="#SVGID_3_"  style="overflow:visible;"/>
			</clipPath>
			<path class="st2" d="M150.8,57.2c-5,0-9.2-1.7-12.7-5.2c-3.5-3.4-5.2-7.7-5.2-12.7c0-5,1.7-9.2,5.2-12.7
				c3.5-3.4,7.7-5.2,12.7-5.2c5,0,9.3,1.7,12.7,5.2c3.5,3.4,5.2,7.7,5.2,12.7c0,5-1.7,9.2-5.2,12.7C160,55.5,155.8,57.2,150.8,57.2
				 M143.2,47.1c2,2,4.5,3.1,7.5,3.1c3,0,5.5-1,7.5-3.1c2-2,3.1-4.6,3.1-7.7c0-3.1-1-5.6-3.1-7.7c-2-2-4.5-3.1-7.5-3.1
				c-3,0-5.5,1-7.5,3.1c-2,2-3.1,4.6-3.1,7.7C140.2,42.5,141.2,45,143.2,47.1"/>
			<polygon class="st2" points="210.2,22.5 217.9,22.5 207.3,56.4 200.1,56.4 193,33.5 185.9,56.4 178.7,56.4 168.1,22.5 
				175.8,22.5 182.4,45.8 189.5,22.5 196.5,22.5 203.6,45.8 			"/>
			<path class="st2" d="M243.6,57.2c-7.1,0-13.1-2.4-17.8-7.1c-4.7-4.7-7.1-10.6-7.1-17.5c0-7,2.3-12.8,7.1-17.5
				c4.7-4.7,10.6-7.1,17.8-7.1c4.3,0,8.3,1,11.9,3c3.6,2,6.5,4.8,8.5,8.3l-6.8,3.9c-1.3-2.4-3.1-4.2-5.5-5.6
				c-2.4-1.4-5.1-2.1-8.1-2.1c-5.1,0-9.2,1.6-12.3,4.8c-3.1,3.2-4.7,7.3-4.7,12.2c0,4.9,1.6,9,4.7,12.2c3.1,3.2,7.2,4.8,12.3,4.8
				c3,0,5.7-0.7,8.1-2.1c2.4-1.4,4.3-3.2,5.5-5.6l6.8,3.9c-2,3.5-4.8,6.2-8.4,8.3C252,56.2,248,57.2,243.6,57.2"/>
			<path class="st2" d="M283.7,21.6c3.9,0,7,1.2,9.4,3.7c2.4,2.5,3.6,5.9,3.6,10.2v20.8h-7.3V36.3c0-2.5-0.7-4.5-2-5.8
				c-1.4-1.4-3.2-2-5.6-2c-2.6,0-4.7,0.8-6.2,2.4c-1.6,1.6-2.4,4.1-2.4,7.4v18.2h-7.3V8.9h7.3v17.9
				C275.4,23.3,278.9,21.6,283.7,21.6"/>
			<path class="st2" d="M328.7,22.4h7.3v33.9h-7.3v-4.9c-2.8,3.8-6.7,5.8-11.9,5.8c-4.7,0-8.6-1.7-11.9-5.2c-3.3-3.5-5-7.7-5-12.6
				c0-5,1.6-9.2,5-12.7c3.3-3.4,7.3-5.2,11.9-5.2c5.2,0,9.1,1.9,11.9,5.7V22.4z M310.3,47.2c2,2.1,4.6,3.1,7.7,3.1
				c3.1,0,5.6-1,7.7-3.1c2-2.1,3.1-4.6,3.1-7.8c0-3.1-1-5.7-3.1-7.8c-2-2.1-4.6-3.1-7.7-3.1c-3.1,0-5.6,1-7.7,3.1
				c-2,2.1-3.1,4.6-3.1,7.8C307.2,42.5,308.3,45.1,310.3,47.2"/>
			<path class="st2" d="M360.6,29.5h-8.4v16.3c0,1.4,0.3,2.4,0.9,3c0.6,0.6,1.6,1,2.8,1c1.2,0.1,2.8,0.1,4.6,0v6.6
				c-5.6,0.7-9.6,0.2-12.1-1.5c-2.4-1.6-3.7-4.7-3.7-9.1V29.5h-6.2v-7.1h6.2v-7.3l7.3-2.2v9.5h8.4V29.5z"/>
		</g>
		<g class="st1">
			<defs>
				<path id="SVGID_5_" d="M7.5,33c-0.7,0.1-1.1,0.8-1.1,1.5v30.6c0,0.9,0.8,1.6,1.6,1.6H8c0.3,0,0.7-0.1,1-0.4l10.7-9.1
					c0.7-0.6,1.5-0.9,2.4-0.9h38.3c2.2,0,3.9-1.8,3.9-3.9v-9.3c0-0.9-0.9-1.6-1.8-1.4c-9,1.8-18.1-1.3-27.1-4.4
					c-7.2-2.5-14.4-4.9-21.6-4.9C11.6,32.4,9.6,32.6,7.5,33 M9.9,8.8c-1.9,0-3.5,1.6-3.5,3.5v10.1c0,0.9,0.9,1.6,1.8,1.4
					c9-1.8,18.1,1.3,27.1,4.4c9.3,3.2,18.5,6.3,27.8,4.3c0.7-0.1,1.1-0.8,1.1-1.5V11.5c0-1.5-1.2-2.7-2.7-2.7H9.9z"/>
			</defs>
			<clipPath id="SVGID_6_">
				<use xlink:href="#SVGID_5_"  style="overflow:visible;"/>
			</clipPath>
			
				<linearGradient id="SVGID_7_" gradientUnits="userSpaceOnUse" x1="-4.602734e-02" y1="74.0272" x2="0.8885" y2="74.0272" gradientTransform="matrix(-28.1404 77.3151 77.3151 28.1404 -5676.2788 -2077.8308)">
				<stop  offset="0" style="stop-color:#00F0C8"/>
				<stop  offset="0.4294" style="stop-color:#00F0C8"/>
				<stop  offset="0.8432" style="stop-color:#00C8A0"/>
				<stop  offset="1" style="stop-color:#00C8A0"/>
			</linearGradient>
			<polygon class="st3" points="82.9,15.6 57.5,85.3 -12.2,59.9 13.2,-9.8 			"/>
		</g>
	</g>
</g>
</svg>
