<?xml version="1.0" encoding="utf-8"?>
<!-- Generator: Adobe Illustrator 22.0.0, SVG Export Plug-In . SVG Version: 6.00 Build 0)  -->
<svg version="1.1" id="Layer_1" xmlns="http://www.w3.org/2000/svg" xmlns:xlink="http://www.w3.org/1999/xlink" x="0px" y="0px"
	 viewBox="0 0 368.6 74" style="enable-background:new 0 0 368.6 74;" xml:space="preserve">
<style type="text/css">
	.st0{fill:#FFFFFF;}
	.st1{clip-path:url(#SVGID_2_);fill:url(#SVGID_3_);}
	.st2{clip-path:url(#SVGID_5_);fill:url(#SVGID_6_);}
</style>
<polygon class="st0" points="117.9,17 97.8,17 97.8,30.3 117.2,30.3 117.2,37.8 97.8,37.8 97.8,57.1 90,57.1 90,9.5 117.9,9.5 "/>
<rect x="121.9" y="9.5" class="st0" width="7.3" height="47.6"/>
<path class="st0" d="M151,58c-5,0-9.2-1.7-12.7-5.2c-3.5-3.4-5.2-7.7-5.2-12.7c0-5,1.7-9.3,5.2-12.7c3.5-3.4,7.7-5.2,12.7-5.2
	c5,0,9.3,1.7,12.8,5.2c3.5,3.4,5.2,7.7,5.2,12.7c0,5-1.7,9.3-5.2,12.7C160.3,56.3,156.1,58,151,58 M143.5,47.8c2,2,4.6,3.1,7.6,3.1
	c3,0,5.5-1,7.6-3.1c2-2,3.1-4.6,3.1-7.7c0-3.1-1-5.6-3.1-7.7c-2-2-4.6-3.1-7.6-3.1c-3,0-5.5,1-7.6,3.1c-2,2-3.1,4.6-3.1,7.7
	C140.4,43.2,141.4,45.8,143.5,47.8"/>
<polygon class="st0" points="210.7,23.1 218.4,23.1 207.8,57.1 200.5,57.1 193.5,34.2 186.3,57.1 179.1,57.1 168.4,23.1 176.2,23.1 
	182.8,46.6 189.9,23.1 196.9,23.1 204,46.6 "/>
<path class="st0" d="M244.2,58c-7.2,0-13.1-2.4-17.8-7.1c-4.7-4.7-7.1-10.6-7.1-17.6c0-7,2.4-12.8,7.1-17.6
	c4.7-4.7,10.7-7.1,17.8-7.1c4.3,0,8.3,1,11.9,3.1c3.7,2,6.5,4.8,8.5,8.3l-6.8,3.9c-1.3-2.4-3.1-4.2-5.5-5.6
	c-2.4-1.4-5.1-2.1-8.1-2.1c-5.1,0-9.2,1.6-12.4,4.8c-3.2,3.2-4.7,7.3-4.7,12.2c0,4.9,1.6,9,4.7,12.2c3.2,3.2,7.3,4.8,12.4,4.8
	c3,0,5.7-0.7,8.2-2.1c2.5-1.4,4.3-3.3,5.5-5.6l6.8,3.9c-2,3.5-4.8,6.3-8.5,8.3C252.6,57,248.6,58,244.2,58"/>
<path class="st0" d="M284.5,22.2c3.9,0,7.1,1.2,9.5,3.7c2.4,2.5,3.6,5.9,3.6,10.3v20.9h-7.3V37c0-2.5-0.7-4.5-2-5.9
	c-1.4-1.4-3.2-2-5.6-2c-2.6,0-4.7,0.8-6.3,2.4c-1.6,1.6-2.4,4.1-2.4,7.4v18.2h-7.3V9.5h7.3v18C276.2,24,279.7,22.2,284.5,22.2"/>
<path class="st0" d="M329.6,23.1h7.4v34h-7.4v-4.9c-2.8,3.9-6.7,5.8-11.9,5.8c-4.7,0-8.7-1.7-12-5.2c-3.3-3.5-5-7.7-5-12.7
	c0-5,1.7-9.3,5-12.7c3.3-3.4,7.3-5.2,12-5.2c5.2,0,9.1,1.9,11.9,5.7V23.1z M311.1,47.9c2,2.1,4.6,3.1,7.7,3.1c3.1,0,5.6-1,7.7-3.1
	c2-2.1,3.1-4.7,3.1-7.8c0-3.1-1-5.7-3.1-7.8c-2-2.1-4.6-3.1-7.7-3.1c-3.1,0-5.6,1-7.7,3.1c-2,2.1-3.1,4.7-3.1,7.8
	C308.1,43.3,309.1,45.9,311.1,47.9"/>
<path class="st0" d="M361.7,30.2h-8.4v16.3c0,1.4,0.3,2.4,1,3c0.6,0.6,1.6,1,2.8,1c1.2,0.1,2.8,0.1,4.7,0v6.6
	c-5.6,0.7-9.7,0.2-12.1-1.5c-2.4-1.7-3.7-4.7-3.7-9.2V30.2h-6.3v-7.1h6.3v-7.3l7.3-2.2v9.5h8.4V30.2z"/>
<g>
	<defs>
		<path id="SVGID_1_" d="M9.9,9.5c-1.9,0-3.5,1.6-3.5,3.5v10.1c0,0.9,0.9,1.6,1.8,1.4c9-1.8,18.1,1.3,27.1,4.4
			c9.3,3.2,18.5,6.3,27.8,4.3c0.7-0.1,1.1-0.8,1.1-1.5V12.2c0-1.5-1.2-2.7-2.7-2.7H9.9z"/>
	</defs>
	<clipPath id="SVGID_2_">
		<use xlink:href="#SVGID_1_"  style="overflow:visible;"/>
	</clipPath>
	
		<linearGradient id="SVGID_3_" gradientUnits="userSpaceOnUse" x1="-123.8625" y1="433.2611" x2="-122.8625" y2="433.2611" gradientTransform="matrix(0 68.9176 68.9176 0 -29824.0312 8539.8281)">
		<stop  offset="0" style="stop-color:#80FEDB"/>
		<stop  offset="1" style="stop-color:#2CB4DE"/>
	</linearGradient>
	<rect x="6.3" y="9.5" class="st1" width="57.9" height="25.7"/>
</g>
<g>
	<defs>
		<path id="SVGID_4_" d="M7.5,33.7c-0.7,0.1-1.1,0.8-1.1,1.5v30.6c0,1.3,1.6,2.1,2.6,1.2l10.7-9.1c0.7-0.6,1.5-0.9,2.4-0.9h38.2
			c2.2,0,3.9-1.8,3.9-3.9v-9.3c0-0.9-0.9-1.6-1.8-1.4c-9,1.8-18.1-1.3-27.1-4.4c-7.2-2.5-14.4-4.9-21.6-4.9
			C11.6,33.1,9.5,33.3,7.5,33.7"/>
	</defs>
	<clipPath id="SVGID_5_">
		<use xlink:href="#SVGID_4_"  style="overflow:visible;"/>
	</clipPath>
	
		<linearGradient id="SVGID_6_" gradientUnits="userSpaceOnUse" x1="-123.8625" y1="433.2611" x2="-122.8625" y2="433.2611" gradientTransform="matrix(0 68.9176 68.9176 0 -29824.0312 8539.8281)">
		<stop  offset="0" style="stop-color:#80FEDB"/>
		<stop  offset="1" style="stop-color:#2CB4DE"/>
	</linearGradient>
	<rect x="6.3" y="33.1" class="st2" width="57.9" height="34.8"/>
</g>
</svg>
