<svg id="Layer_1" data-name="Layer 1" xmlns="http://www.w3.org/2000/svg" xmlns:xlink="http://www.w3.org/1999/xlink" viewBox="0 0 512 512"><defs><style>.cls-1{fill:none;}.cls-2{clip-path:url(#clip-path);}.cls-3{clip-path:url(#clip-path-2);}.cls-4{fill:url(#linear-gradient);}</style><clipPath id="clip-path"><rect class="cls-1" x="59.5" y="59.51" width="393" height="392.98"/></clipPath><clipPath id="clip-path-2"><path class="cls-1" d="M67.29,224.06a10.09,10.09,0,0,0-7.79,9.87V441.78a10.69,10.69,0,0,0,10.58,10.71h.34A10.49,10.49,0,0,0,77.11,450l72.78-61.56a24.72,24.72,0,0,1,16-5.86H425.73a26.77,26.77,0,0,0,26.77-26.76V292.71a10.12,10.12,0,0,0-12.29-9.77C378.81,294.86,317.4,274,256,253c-49-16.74-98-33.38-147-33.38a193,193,0,0,0-41.75,4.42M83.39,59.51A23.89,23.89,0,0,0,59.5,83.39v68.44a10.14,10.14,0,0,0,12.28,9.79c61.42-11.93,122.81,8.92,184.22,29.89,62.91,21.51,125.81,42.86,188.71,29a10.11,10.11,0,0,0,7.79-9.88V78.05a18.54,18.54,0,0,0-18.56-18.54Z"/></clipPath><linearGradient id="linear-gradient" x1="-0.32" y1="3.76" x2="6.03" y2="3.76" gradientTransform="matrix(-82.28, 0, 0, 82.28, 489.66, -53.54)" gradientUnits="userSpaceOnUse"><stop offset="0" stop-color="#00f0c8"/><stop offset="0.43" stop-color="#00f0c8"/><stop offset="0.84" stop-color="#00c8a0"/><stop offset="1" stop-color="#00c8a0"/></linearGradient></defs><title>FlowChat-Icon</title><g id="Icon"><g class="cls-2"><g class="cls-3"><rect class="cls-4" x="4.15" y="4.15" width="503.7" height="503.71" transform="translate(-72.12 409.01) rotate(-70)"/></g></g></g></svg>