<svg id="Layer_1" data-name="Layer 1" xmlns="http://www.w3.org/2000/svg" xmlns:xlink="http://www.w3.org/1999/xlink" viewBox="0 0 818.05 152.41"><defs><style>.cls-1{fill:none;}.cls-2{clip-path:url(#clip-path);}.cls-3{fill:#240046;}.cls-4{clip-path:url(#clip-path-2);}.cls-5{clip-path:url(#clip-path-3);}.cls-6{fill:url(#linear-gradient);}</style><clipPath id="clip-path"><rect class="cls-1" x="9.53" y="10.03" width="799" height="132.34"/></clipPath><clipPath id="clip-path-2"><rect class="cls-1" x="9.53" y="10.03" width="799" height="132.34"/></clipPath><clipPath id="clip-path-3"><path class="cls-1" d="M12.11,66.48a3.36,3.36,0,0,0-2.58,3.28v69.06A3.56,3.56,0,0,0,13,142.38h.11a3.52,3.52,0,0,0,2.23-.85l24.18-20.45a8.2,8.2,0,0,1,5.31-2H131.2a8.9,8.9,0,0,0,8.9-8.89V89.29A3.36,3.36,0,0,0,136,86.05c-20.4,4-40.8-3-61.2-10C58.54,70.54,42.26,65,26,65a64.12,64.12,0,0,0-13.87,1.47m5.35-54.67a7.93,7.93,0,0,0-7.93,7.94V42.49a3.37,3.37,0,0,0,4.08,3.25c20.4-4,40.8,3,61.2,9.93,20.9,7.15,41.8,14.24,62.7,9.63A3.36,3.36,0,0,0,140.1,62V18a6.17,6.17,0,0,0-6.17-6.16Z"/></clipPath><linearGradient id="linear-gradient" x1="-97.21" y1="-135.74" x2="-95.11" y2="-135.74" gradientTransform="matrix(-82.28, 0, 0, 82.28, -7837.35, 11245.12)" gradientUnits="userSpaceOnUse"><stop offset="0" stop-color="#00f0c8"/><stop offset="0.43" stop-color="#00f0c8"/><stop offset="0.84" stop-color="#00c8a0"/><stop offset="1" stop-color="#00c8a0"/></linearGradient></defs><title>FlowChat-Logo</title><g id="Logo"><g class="cls-2"><polygon class="cls-3" points="260.62 28.84 215.51 28.84 215.51 58.82 259.1 58.82 259.1 75.64 215.51 75.64 215.51 119.08 197.92 119.08 197.92 12.02 260.62 12.02 260.62 28.84"/><rect class="cls-3" x="269.73" y="12.02" width="16.52" height="107.06"/><g class="cls-4"><path class="cls-3" d="M335.13,121.07a39.19,39.19,0,0,1-28.6-11.63,38.62,38.62,0,0,1-11.78-28.6,38.62,38.62,0,0,1,11.78-28.6,41.09,41.09,0,0,1,57.27,0q11.7,11.63,11.7,28.6t-11.7,28.6q-11.69,11.63-28.67,11.63m-17-22.94a24.38,24.38,0,0,0,34,0A23.45,23.45,0,0,0,359,80.84a23.44,23.44,0,0,0-6.89-17.28,24.38,24.38,0,0,0-34,0,23.47,23.47,0,0,0-6.88,17.28,23.48,23.48,0,0,0,6.88,17.29"/><polygon class="cls-3" points="469.19 42.61 486.63 42.61 462.62 119.08 446.4 119.08 430.5 67.54 414.44 119.08 398.23 119.08 374.22 42.61 391.65 42.61 406.49 95.37 422.55 42.61 438.3 42.61 454.2 95.37 469.19 42.61"/><path class="cls-3" d="M544.63,121.07q-24.17,0-40.07-16t-15.9-39.53q0-23.55,15.9-39.54t40.07-16a54.13,54.13,0,0,1,26.84,6.87,50.07,50.07,0,0,1,19.2,18.66l-15.29,8.88a31.59,31.59,0,0,0-12.47-12.62,36.27,36.27,0,0,0-18.28-4.67q-17.13,0-27.76,10.86T506.25,65.55q0,16.68,10.62,27.53t27.76,10.85A36.7,36.7,0,0,0,563,99.27a30.5,30.5,0,0,0,12.39-12.61l15.29,8.71a49.49,49.49,0,0,1-19,18.74,53.93,53.93,0,0,1-27,7"/><path class="cls-3" d="M635.07,40.62q13.15,0,21.26,8.41t8.1,23.1v47H647.91V73.81c0-5.71-1.52-10.1-4.59-13.16s-7.24-4.58-12.54-4.58q-8.7,0-14.07,5.42t-5.35,16.6v41H594.84V12h16.52V52.39q7.5-11.76,23.71-11.77"/><path class="cls-3" d="M736.4,42.61h16.52v76.47H736.4v-11q-9.33,13-26.76,13a35.85,35.85,0,0,1-26.92-11.7q-11.16-11.7-11.16-28.53,0-17,11.16-28.6a36,36,0,0,1,26.92-11.62q17.43,0,26.76,12.84ZM695,98.35a24.94,24.94,0,0,0,34.57,0q6.88-7,6.88-17.51a23.88,23.88,0,0,0-6.88-17.51,24.94,24.94,0,0,0-34.57,0,23.92,23.92,0,0,0-6.88,17.51A23.9,23.9,0,0,0,695,98.35"/><path class="cls-3" d="M808.53,58.51h-19V95.22q0,4.74,2.14,6.8a9.59,9.59,0,0,0,6.35,2.3,103.81,103.81,0,0,0,10.48-.08v14.84q-19,2.28-27.23-3.29T773,95.22V58.51H759V42.61H773V26.09l16.52-4.9V42.61h19Z"/></g><g class="cls-5"><rect class="cls-6" x="-8.86" y="-6.58" width="167.35" height="167.35" transform="translate(-23.22 121.03) rotate(-70)"/></g></g></g></svg>